<svg width="28" height="28" viewBox="0 0 28 28" fill="none" xmlns="http://www.w3.org/2000/svg">
<path d="M19.7141 2.57129H8.28557C5.12966 2.57129 2.57129 5.12966 2.57129 8.28557V19.7141C2.57129 22.8701 5.12966 25.4284 8.28557 25.4284H19.7141C22.8701 25.4284 25.4284 22.8701 25.4284 19.7141V8.28557C25.4284 5.12966 22.8701 2.57129 19.7141 2.57129Z" fill="#FFFFFF"/>
<path d="M18.5714 13.2798C18.7125 14.2309 18.55 15.2023 18.1072 16.0558C17.6643 16.9093 16.9636 17.6014 16.1047 18.0337C15.2459 18.466 14.2725 18.6165 13.3232 18.4637C12.3739 18.311 11.4969 17.8627 10.817 17.1828C10.1371 16.5029 9.68885 15.6259 9.53609 14.6766C9.38333 13.7273 9.5338 12.754 9.9661 11.8951C10.3984 11.0362 11.0905 10.3355 11.944 9.89263C12.7975 9.44978 13.7689 9.28732 14.72 9.42836C15.6902 9.57223 16.5884 10.0243 17.2819 10.7179C17.9755 11.4114 18.4276 12.3096 18.5714 13.2798Z" fill="#e5442d"/>
<path d="M20.2856 7.71436H20.2971" stroke="#e5442d" stroke-width="2" stroke-linecap="round" stroke-linejoin="round"/>
</svg>
