<svg width="35" height="35" viewBox="0 0 35 35" fill="none" xmlns="http://www.w3.org/2000/svg">
<path d="M28.9032 19.9554V27.9998C28.9032 28.1974 28.7338 28.3667 28.5363 28.3667H24.3871C24.1895 28.3667 24.0201 28.1974 24.0201 27.9998V20.5199C24.0201 18.5441 23.3145 17.1893 21.5363 17.1893C20.1814 17.1893 19.3911 18.0925 19.0242 18.9675C18.883 19.278 18.8548 19.7296 18.8548 20.153V27.9998C18.8548 28.1974 18.6855 28.3667 18.4879 28.3667H14.3669C14.1693 28.3667 14 28.1974 14 27.9998C14 25.9957 14.0564 16.3143 14 14.0562C14 13.8587 14.1693 13.6893 14.3669 13.6893H18.5161C18.7137 13.6893 18.883 13.8587 18.883 14.0562V15.778C18.883 15.8062 18.8548 15.8062 18.8548 15.8345H18.883V15.778C19.5322 14.7901 20.6895 13.3506 23.2863 13.3506C26.504 13.3506 28.9032 15.4675 28.9032 19.9554ZM6.77416 28.3949H10.9234C11.1209 28.3949 11.2903 28.2256 11.2903 28.028V14.0562C11.2903 13.8587 11.1209 13.6893 10.9234 13.6893H6.77416C6.57658 13.6893 6.40723 13.8587 6.40723 14.0562V28.028C6.43545 28.2256 6.57658 28.3949 6.77416 28.3949Z" fill="#FFFFFF"/>
<path d="M8.72168 11.855C10.1714 11.855 11.3467 10.6797 11.3467 9.22998C11.3467 7.78023 10.1714 6.60498 8.72168 6.60498C7.27193 6.60498 6.09668 7.78023 6.09668 9.22998C6.09668 10.6797 7.27193 11.855 8.72168 11.855Z" fill="#FFFFFF"/>
</svg>
