<svg width="93" height="20" viewBox="0 0 93 20" fill="none" xmlns="http://www.w3.org/2000/svg">
<path d="M0.517045 1.54545H5.06818L9.875 13.2727H10.0795L14.8864 1.54545H19.4375V19H15.858V7.6392H15.7131L11.196 18.9148H8.75852L4.24148 7.59659H4.09659V19H0.517045V1.54545ZM26.1428 19.2472C25.3075 19.2472 24.5632 19.1023 23.9098 18.8125C23.2564 18.517 22.7393 18.0824 22.3587 17.5085C21.9837 16.929 21.7962 16.2074 21.7962 15.3438C21.7962 14.6165 21.9297 14.0057 22.1967 13.5114C22.4638 13.017 22.8274 12.6193 23.2876 12.3182C23.7479 12.017 24.2706 11.7898 24.8558 11.6364C25.4467 11.483 26.0661 11.375 26.7138 11.3125C27.4751 11.233 28.0888 11.1591 28.5547 11.0909C29.0206 11.017 29.3587 10.9091 29.5689 10.767C29.7791 10.625 29.8842 10.4148 29.8842 10.1364V10.0852C29.8842 9.54545 29.7138 9.12784 29.3729 8.83239C29.0376 8.53693 28.5604 8.3892 27.9411 8.3892C27.2876 8.3892 26.7678 8.53409 26.3814 8.82386C25.995 9.10795 25.7393 9.46591 25.6143 9.89773L22.2564 9.625C22.4268 8.82955 22.7621 8.14205 23.2621 7.5625C23.7621 6.97727 24.407 6.52841 25.1967 6.21591C25.9922 5.89773 26.9126 5.73864 27.9581 5.73864C28.6854 5.73864 29.3814 5.82386 30.0462 5.99432C30.7166 6.16477 31.3104 6.42898 31.8274 6.78693C32.3501 7.14489 32.7621 7.60511 33.0632 8.16761C33.3643 8.72443 33.5149 9.39205 33.5149 10.1705V19H30.0717V17.1847H29.9695C29.7592 17.5938 29.478 17.9545 29.1257 18.267C28.7734 18.5739 28.3501 18.8153 27.8558 18.9915C27.3615 19.1619 26.7905 19.2472 26.1428 19.2472ZM27.1825 16.7415C27.7166 16.7415 28.1882 16.6364 28.5973 16.4261C29.0064 16.2102 29.3274 15.9205 29.5604 15.5568C29.7933 15.1932 29.9098 14.7812 29.9098 14.321V12.9318C29.7962 13.0057 29.6399 13.0739 29.4411 13.1364C29.2479 13.1932 29.0291 13.2472 28.7848 13.2983C28.5405 13.3437 28.2962 13.3864 28.0518 13.4261C27.8075 13.4602 27.5859 13.4915 27.3871 13.5199C26.9609 13.5824 26.5888 13.6818 26.2706 13.8182C25.9524 13.9545 25.7053 14.1392 25.5291 14.3722C25.353 14.5994 25.2649 14.8835 25.2649 15.2244C25.2649 15.7188 25.4439 16.0966 25.8018 16.358C26.1655 16.6136 26.6257 16.7415 27.1825 16.7415ZM36.3317 19V5.90909H39.7919V8.21875H39.9453C40.218 7.4517 40.6726 6.84659 41.3089 6.40341C41.9453 5.96023 42.7067 5.73864 43.593 5.73864C44.4908 5.73864 45.255 5.96307 45.8857 6.41193C46.5163 6.85511 46.9368 7.45739 47.147 8.21875H47.2834C47.5504 7.46875 48.0334 6.86932 48.7322 6.42045C49.4368 5.96591 50.2692 5.73864 51.2294 5.73864C52.451 5.73864 53.4425 6.12784 54.2038 6.90625C54.9709 7.67898 55.3544 8.77557 55.3544 10.196V19H51.7322V10.9119C51.7322 10.1847 51.5391 9.6392 51.1527 9.27557C50.7663 8.91193 50.2834 8.73011 49.7038 8.73011C49.0447 8.73011 48.5305 8.94034 48.1612 9.3608C47.7919 9.77557 47.6072 10.3239 47.6072 11.0057V19H44.0874V10.8352C44.0874 10.1932 43.9027 9.68182 43.5334 9.30114C43.1697 8.92045 42.6896 8.73011 42.093 8.73011C41.6896 8.73011 41.326 8.83239 41.0021 9.03693C40.6839 9.2358 40.4311 9.51705 40.2436 9.88068C40.0561 10.2386 39.9624 10.6591 39.9624 11.142V19H36.3317ZM58.2223 19V5.90909H61.853V19H58.2223ZM60.0462 4.22159C59.5064 4.22159 59.0433 4.04261 58.657 3.68466C58.2763 3.32102 58.0859 2.88636 58.0859 2.38068C58.0859 1.88068 58.2763 1.4517 58.657 1.09375C59.0433 0.730113 59.5064 0.548295 60.0462 0.548295C60.5859 0.548295 61.0462 0.730113 61.4268 1.09375C61.8132 1.4517 62.0064 1.88068 62.0064 2.38068C62.0064 2.88636 61.8132 3.32102 61.4268 3.68466C61.0462 4.04261 60.5859 4.22159 60.0462 4.22159ZM71.7244 5.90909V8.63636H63.8409V5.90909H71.7244ZM65.6307 2.77273H69.2614V14.9773C69.2614 15.3125 69.3125 15.5739 69.4148 15.7614C69.517 15.9432 69.6591 16.071 69.8409 16.1449C70.0284 16.2187 70.2443 16.2557 70.4886 16.2557C70.6591 16.2557 70.8295 16.2415 71 16.2131C71.1705 16.179 71.3011 16.1534 71.392 16.1364L71.9631 18.8381C71.7813 18.8949 71.5256 18.9602 71.196 19.0341C70.8665 19.1136 70.4659 19.1619 69.9943 19.179C69.1193 19.2131 68.3523 19.0966 67.6932 18.8295C67.0398 18.5625 66.5313 18.1477 66.1676 17.5852C65.804 17.0227 65.625 16.3125 65.6307 15.4545V2.77273ZM77.8224 19.2472C76.9872 19.2472 76.2429 19.1023 75.5895 18.8125C74.9361 18.517 74.419 18.0824 74.0384 17.5085C73.6634 16.929 73.4759 16.2074 73.4759 15.3438C73.4759 14.6165 73.6094 14.0057 73.8764 13.5114C74.1435 13.017 74.5071 12.6193 74.9673 12.3182C75.4276 12.017 75.9503 11.7898 76.5355 11.6364C77.1264 11.483 77.7457 11.375 78.3935 11.3125C79.1548 11.233 79.7685 11.1591 80.2344 11.0909C80.7003 11.017 81.0384 10.9091 81.2486 10.767C81.4588 10.625 81.5639 10.4148 81.5639 10.1364V10.0852C81.5639 9.54545 81.3935 9.12784 81.0526 8.83239C80.7173 8.53693 80.2401 8.3892 79.6207 8.3892C78.9673 8.3892 78.4474 8.53409 78.0611 8.82386C77.6747 9.10795 77.419 9.46591 77.294 9.89773L73.9361 9.625C74.1065 8.82955 74.4418 8.14205 74.9418 7.5625C75.4418 6.97727 76.0866 6.52841 76.8764 6.21591C77.6719 5.89773 78.5923 5.73864 79.6378 5.73864C80.3651 5.73864 81.0611 5.82386 81.7259 5.99432C82.3963 6.16477 82.9901 6.42898 83.5071 6.78693C84.0298 7.14489 84.4418 7.60511 84.7429 8.16761C85.044 8.72443 85.1946 9.39205 85.1946 10.1705V19H81.7514V17.1847H81.6491C81.4389 17.5938 81.1577 17.9545 80.8054 18.267C80.4531 18.5739 80.0298 18.8153 79.5355 18.9915C79.0412 19.1619 78.4702 19.2472 77.8224 19.2472ZM78.8622 16.7415C79.3963 16.7415 79.8679 16.6364 80.277 16.4261C80.6861 16.2102 81.0071 15.9205 81.2401 15.5568C81.473 15.1932 81.5895 14.7812 81.5895 14.321V12.9318C81.4759 13.0057 81.3196 13.0739 81.1207 13.1364C80.9276 13.1932 80.7088 13.2472 80.4645 13.2983C80.2202 13.3437 79.9759 13.3864 79.7315 13.4261C79.4872 13.4602 79.2656 13.4915 79.0668 13.5199C78.6406 13.5824 78.2685 13.6818 77.9503 13.8182C77.6321 13.9545 77.3849 14.1392 77.2088 14.3722C77.0327 14.5994 76.9446 14.8835 76.9446 15.2244C76.9446 15.7188 77.1236 16.0966 77.4815 16.358C77.8452 16.6136 78.3054 16.7415 78.8622 16.7415ZM90.1335 19.2216C89.571 19.2216 89.0881 19.0227 88.6847 18.625C88.2869 18.2216 88.0881 17.7386 88.0881 17.1761C88.0881 16.6193 88.2869 16.142 88.6847 15.7443C89.0881 15.3466 89.571 15.1477 90.1335 15.1477C90.679 15.1477 91.1563 15.3466 91.5653 15.7443C91.9744 16.142 92.179 16.6193 92.179 17.1761C92.179 17.5511 92.0824 17.8949 91.8892 18.2074C91.7017 18.5142 91.4545 18.7614 91.1477 18.9489C90.8409 19.1307 90.5028 19.2216 90.1335 19.2216Z" fill="#494949"/>
</svg>
