<svg width="28" height="29" viewBox="0 0 28 29" fill="none" xmlns="http://www.w3.org/2000/svg">
<g clip-path="url(#clip0_23_877)">
<path d="M26.2857 8.58278C25.1913 9.35476 23.9795 9.94519 22.6971 10.3314C22.0088 9.53994 21.0941 8.979 20.0766 8.72441C19.0591 8.46982 17.988 8.53386 17.0081 8.90787C16.0282 9.28188 15.1868 9.94781 14.5977 10.8156C14.0086 11.6834 13.7002 12.7112 13.7143 13.7599V14.9028C11.7058 14.9549 9.71571 14.5094 7.92112 13.6061C6.12653 12.7029 4.58318 11.3698 3.42854 9.72564C3.42854 9.72564 -1.14289 20.0114 9.14282 24.5828C6.78914 26.1805 3.98529 26.9816 1.14282 26.8685C11.4285 32.5828 24 26.8685 24 13.7256C23.9989 13.4073 23.9683 13.0897 23.9085 12.7771C25.0749 11.6268 25.8981 10.1745 26.2857 8.58278Z" fill="#494949"/>
</g>
<defs>
<clipPath id="clip0_23_877">
<rect width="27.4286" height="27.4286" fill="white" transform="translate(0.285645 0.856934)"/>
</clipPath>
</defs>
</svg>
